<?xml version="1.0" encoding="UTF-8"?>
<svg xmlns="http://www.w3.org/2000/svg" viewBox="0 0 1340.04 730.74">
  <defs>
    <style>
      .cls-1, .cls-2 {
        fill: none;
        stroke: #ccc;
        stroke-miterlimit: 10;
        stroke-width: 18px;
      }

      .cls-2 {
        stroke-linecap: round;
      }

      .cls-3 {
        fill: #ccc;
      }
    </style>
  </defs>
  <g id="Layer_2_copy" data-name="Layer 2 copy">
    <path class="cls-2" d="M782.74,375.07c-21.57,109.26-98.2,132.92-183.61,114.77-26.56-5.64-45.95-5.71-84.35-20.83-34.81-13.7-46.95-76.55-44.1-101.22,2.27-19.67,52.97-33.93,63-50.55.69-1.15,1.86-2.25,2.7-4.14,3.47-7.84-1.86-13.86-1.02-23.53.36-4.09,1.63-6.76,4.05-11.79,9.33-19.45,29.83-36.33,29.83-36.33,9.69-7.98,44.68-36.2,88.59-43.74,7.68-1.32,13.82-1.66,26.1-2.33,28.83-1.58,32.29,3.23,32.29,3.23"/>
    <path class="cls-1" d="M791.74,311.85c15.44-1.32,29.58-7.15,41.11-16.17,10.58,25.36,17.95,52.25,23.26,78.66,5.96,29.66,13.74,59.26,14.8,91.66-28.98,23.36-74.21,54.52-135.66,77.7-48.7,18.38-99.9,27.61-155.05,30.08,6.06-25.67,16.68-68.09,4.79-86.63"/>
    <path class="cls-2" d="M707.45,234.51c0-12.95,3.17-25.16,8.78-35.89,12.96-24.8,38.92-41.72,68.83-41.72,42.87,0,77.62,34.75,77.62,77.61,0,24.85-11.67,46.96-29.83,61.17-11.53,9.02-25.67,14.85-41.11,16.17"/>
    <path class="cls-1" d="M657.84,197.72c-33.84,5.97-65.27,22.84-88.59,43.74-5.28-7.9-8.36-17.41-8.36-27.63,0-27.49,22.29-49.79,49.79-49.79,20.81,0,38.63,13.98,45.89,30.46.48,1.09.9,2.17,1.27,3.22Z"/>
  </g>
  <g id="Layer_4" data-name="Layer 4">
    <path class="cls-3" d="M513.06,384.59c-6.36,13.11-21.44,23.1-37.15,18.3s-7.92-11.61-8.15-26.6c-.36-23.61,18.73-18.46,35.09-16.97s17.11,11.06,10.21,25.28Z"/>
    <path class="cls-3" d="M811.76,208.96c-14.87-16.3-41.91-19.2-56.43-2.59-7.54,8.64-17.62,26.51-7.46,30.43,25.62,9.87,30.47,22.98,38.3,37.62,4.23,7.91,15.86-2.51,23-9.03,16.3-14.87,17.45-40.13,2.59-56.43Z"/>
  </g>
</svg>