{
  "accessors": [
    {
      "bufferView": 0,
      "componentType": 5125,
      "count": 10464,
      "type": "SCALAR"
    },
    {
      "bufferView": 1,
      "componentType": 5126,
      "count": 1872,
      "max": [
        0.149940922856331,
        0.153939589858055,
        0.0996741056442261
      ],
      "min": [
        -0.149940967559814,
        -0.141427263617516,
        -0.190370067954063
      ],
      "type": "VEC3"
    },
    {
      "bufferView": 2,
      "componentType": 5126,
      "count": 1872,
      "type": "VEC3"
    },
    {
      "bufferView": 3,
      "componentType": 5126,
      "count": 1872,
      "type": "VEC4"
    },
    {
      "bufferView": 4,
      "componentType": 5126,
      "count": 1872,
      "type": "VEC2"
    },
    {
      "bufferView": 5,
      "componentType": 5125,
      "count": 1314,
      "type": "SCALAR"
    },
    {
      "bufferView": 6,
      "componentType": 5126,
      "count": 276,
      "max": [
        0.0274898186326027,
        -0.135451138019562,
        -0.0325513519346714
      ],
      "min": [
        -0.0276536103338003,
        -0.13935860991478,
        -0.0773102939128876
      ],
      "type": "VEC3"
    },
    {
      "bufferView": 7,
      "componentType": 5126,
      "count": 276,
      "type": "VEC3"
    },
    {
      "bufferView": 8,
      "componentType": 5126,
      "count": 276,
      "type": "VEC4"
    },
    {
      "bufferView": 9,
      "componentType": 5126,
      "count": 276,
      "type": "VEC2"
    },
    {
      "bufferView": 10,
      "componentType": 5125,
      "count": 5184,
      "type": "SCALAR"
    },
    {
      "bufferView": 11,
      "componentType": 5126,
      "count": 963,
      "max": [
        0.146294385194778,
        0.0331977009773254,
        0.234719410538673
      ],
      "min": [
        -0.146294429898262,
        -0.144384175539017,
        -0.104317381978035
      ],
      "type": "VEC3"
    },
    {
      "bufferView": 12,
      "componentType": 5126,
      "count": 963,
      "type": "VEC3"
    },
    {
      "bufferView": 13,
      "componentType": 5126,
      "count": 963,
      "type": "VEC4"
    },
    {
      "bufferView": 14,
      "componentType": 5126,
      "count": 963,
      "type": "VEC2"
    }
  ],
  "asset": {
    "generator": "Adobe Substance 3D Painter 12.0.3",
    "version": "2.0"
  },
  "bufferViews": [
    {
      "buffer": 0,
      "byteLength": 41856,
      "target": 34963
    },
    {
      "buffer": 0,
      "byteLength": 22464,
      "byteOffset": 41856,
      "target": 34962
    },
    {
      "buffer": 0,
      "byteLength": 22464,
      "byteOffset": 64320,
      "target": 34962
    },
    {
      "buffer": 0,
      "byteLength": 29952,
      "byteOffset": 86784,
      "target": 34962
    },
    {
      "buffer": 0,
      "byteLength": 14976,
      "byteOffset": 116736,
      "target": 34962
    },
    {
      "buffer": 0,
      "byteLength": 5256,
      "byteOffset": 131712,
      "target": 34963
    },
    {
      "buffer": 0,
      "byteLength": 3312,
      "byteOffset": 136968,
      "target": 34962
    },
    {
      "buffer": 0,
      "byteLength": 3312,
      "byteOffset": 140280,
      "target": 34962
    },
    {
      "buffer": 0,
      "byteLength": 4416,
      "byteOffset": 143592,
      "target": 34962
    },
    {
      "buffer": 0,
      "byteLength": 2208,
      "byteOffset": 148008,
      "target": 34962
    },
    {
      "buffer": 0,
      "byteLength": 20736,
      "byteOffset": 150216,
      "target": 34963
    },
    {
      "buffer": 0,
      "byteLength": 11556,
      "byteOffset": 170952,
      "target": 34962
    },
    {
      "buffer": 0,
      "byteLength": 11556,
      "byteOffset": 182508,
      "target": 34962
    },
    {
      "buffer": 0,
      "byteLength": 15408,
      "byteOffset": 194064,
      "target": 34962
    },
    {
      "buffer": 0,
      "byteLength": 7704,
      "byteOffset": 209472,
      "target": 34962
    }
  ],
  "buffers": [
    {
      "byteLength": 217176,
      "uri": "kettelebell.bin"
    }
  ],
  "images": [
    {
      "uri": "jelly_baseColor.png"
    },
    {
      "uri": "jelly_occlusionRoughnessMetallic.png"
    },
    {
      "uri": "jelly_normal.png"
    },
    {
      "uri": "metal_baseColor.png"
    },
    {
      "uri": "metal_occlusionRoughnessMetallic.png"
    },
    {
      "uri": "metal_normal.png"
    },
    {
      "uri": "metal_light_baseColor.png"
    },
    {
      "uri": "metal_light_occlusionRoughnessMetallic.png"
    },
    {
      "uri": "metal_light_normal.png"
    }
  ],
  "materials": [
    {
      "alphaMode": "OPAQUE",
      "name": "jelly",
      "normalTexture": {
        "index": 2
      },
      "occlusionTexture": {
        "index": 1
      },
      "pbrMetallicRoughness": {
        "baseColorTexture": {
          "index": 0
        },
        "metallicRoughnessTexture": {
          "index": 1
        }
      }
    },
    {
      "alphaMode": "OPAQUE",
      "name": "metal",
      "normalTexture": {
        "index": 5
      },
      "occlusionTexture": {
        "index": 4
      },
      "pbrMetallicRoughness": {
        "baseColorTexture": {
          "index": 3
        },
        "metallicRoughnessTexture": {
          "index": 4
        }
      }
    },
    {
      "alphaMode": "OPAQUE",
      "name": "metal_light",
      "normalTexture": {
        "index": 8
      },
      "occlusionTexture": {
        "index": 7
      },
      "pbrMetallicRoughness": {
        "baseColorTexture": {
          "index": 6
        },
        "metallicRoughnessTexture": {
          "index": 7
        }
      }
    }
  ],
  "meshes": [
    {
      "name": "jelly_base_lp",
      "primitives": [
        {
          "attributes": {
            "NORMAL": 2,
            "POSITION": 1,
            "TANGENT": 3,
            "TEXCOORD_0": 4
          },
          "indices": 0,
          "material": 0,
          "mode": 4
        }
      ]
    },
    {
      "name": "l_metal_number_lp",
      "primitives": [
        {
          "attributes": {
            "NORMAL": 7,
            "POSITION": 6,
            "TANGENT": 8,
            "TEXCOORD_0": 9
          },
          "indices": 5,
          "material": 2,
          "mode": 4
        }
      ]
    },
    {
      "name": "metal_handle_lp",
      "primitives": [
        {
          "attributes": {
            "NORMAL": 12,
            "POSITION": 11,
            "TANGENT": 13,
            "TEXCOORD_0": 14
          },
          "indices": 10,
          "material": 1,
          "mode": 4
        }
      ]
    }
  ],
  "nodes": [
    {
      "children": [
        1,
        3,
        5
      ],
      "name": "RootNode"
    },
    {
      "children": [
        2
      ],
      "name": "jelly_base_lp",
      "rotation": [
        -0.707106828689575,
        0.0,
        0.0,
        0.707106709480286
      ]
    },
    {
      "mesh": 0,
      "name": "jelly_base_lp"
    },
    {
      "children": [
        4
      ],
      "name": "l_metal_number_lp",
      "rotation": [
        -0.707106828689575,
        0.0,
        0.0,
        0.707106709480286
      ]
    },
    {
      "mesh": 1,
      "name": "l_metal_number_lp"
    },
    {
      "children": [
        6
      ],
      "name": "metal_handle_lp",
      "rotation": [
        -0.707106828689575,
        0.0,
        0.0,
        0.707106709480286
      ]
    },
    {
      "mesh": 2,
      "name": "metal_handle_lp"
    }
  ],
  "samplers": [
    {
      "magFilter": 9729,
      "minFilter": 9985,
      "wrapS": 10497,
      "wrapT": 10497
    }
  ],
  "scene": 0,
  "scenes": [
    {
      "name": "Scene",
      "nodes": [
        0
      ]
    }
  ],
  "textures": [
    {
      "sampler": 0,
      "source": 0
    },
    {
      "sampler": 0,
      "source": 1
    },
    {
      "sampler": 0,
      "source": 2
    },
    {
      "sampler": 0,
      "source": 3
    },
    {
      "sampler": 0,
      "source": 4
    },
    {
      "sampler": 0,
      "source": 5
    },
    {
      "sampler": 0,
      "source": 6
    },
    {
      "sampler": 0,
      "source": 7
    },
    {
      "sampler": 0,
      "source": 8
    }
  ]
}